# xmcd
#
# Track frame offsets: 
#        150
#        27140
#        46540
#        72972
#        92205
#        119820
#        134297
#        142212
#        170582
#        185912
#        212805
#        224330
#
# Disc length: 3490 seconds
#
# Revision: 1
# Processed by: cddbd v1.5.2PL0 Copyright (c) Steve Scherf et al.
# Submitted via: ExactAudioCopy v1.0b4
#
DISCID=c00da00c
DTITLE=Carey  and Lurrie Bell - Dynasty
DYEAR=1996
DGENRE=Blues
TTITLE0=Brought up the Hard Way
TTITLE1=(I Shoulda Did) What My Mama Tlod Me
TTITLE2=Sail on
TTITLE3=I'll be Your 44
TTITLE4=The Gladys Shuffle
TTITLE5=I Need You So Bad
TTITLE6=1215 W Belmont
TTITLE7=Second Hand Man
TTITLE8=New Harp in Town
TTITLE9=Going Back to Louisiana
TTITLE10=No Picks
TTITLE11=I Don't Need No Woman
EXTD=Featuring James, Steve and Tyson Bell and Pete Allen
EXTT0=
EXTT1=
EXTT2=
EXTT3=
EXTT4=
EXTT5=
EXTT6=
EXTT7=
EXTT8=
EXTT9=
EXTT10=
EXTT11=
PLAYORDER=
